<svg width="50" height="52" viewBox="0 0 50 52" fill="none" xmlns="http://www.w3.org/2000/svg">
<path d="M29.3858 25.0422L33.1039 26.8891M29.3858 25.0422C29.6984 24.2894 29.8598 23.4712 29.8605 22.6341C29.8613 21.797 29.7016 20.9574 29.3904 20.1635C29.0791 19.3695 28.6226 18.6365 28.0468 18.0065C27.471 17.3765 26.7872 16.8618 26.0344 16.4917C25.2817 16.1216 24.4747 15.9033 23.6596 15.8495C22.8445 15.7956 22.0372 15.9072 21.2839 16.1777C20.5305 16.4483 19.8458 16.8726 19.2689 17.4265C18.692 17.9803 18.2341 18.6528 17.9215 19.4056C17.2901 20.9258 17.2884 22.6808 17.9169 24.2843C18.5454 25.8878 19.7526 27.2086 21.2729 27.9561C22.7931 28.7036 24.5019 28.8165 26.0234 28.27C27.5449 27.7236 28.7544 26.5625 29.3858 25.0422Z" stroke="#DB8958" stroke-width="3.75686" stroke-linecap="round"/>
<path d="M14.3067 37.4068C11.7792 34.5252 9.72792 31.2285 8.42958 27.8985C4.90808 18.8662 8.87508 9.10472 17.2894 6.09708C25.7037 3.08944 35.3809 7.97391 38.9024 17.0061C42.3965 25.9681 41.6124 38.1663 35.482 44.6163C34.7778 45.3587 33.9136 45.922 32.9506 46.2662C31.9876 46.6104 30.9493 46.7272 29.9093 46.6083C27.0216 46.2812 24.1422 45.1684 21.4484 43.5134" stroke="#DB8958" stroke-width="3.75686" stroke-linecap="round"/>
</svg>
